{
  "streams": [
    {
      "index": 0,
      "codec_name": "h264",
      "codec_long_name": "H.264 / AVC / MPEG-4 AVC / MPEG-4 part 10",
      "profile": "High",
      "codec_type": "video",
      "codec_time_base": "1001/48000",
      "codec_tag_string": "[0][0][0][0]",
      "codec_tag": "0x0000",
      "width": 3840,
      "height": 1606,
      "coded_width": 3840,
      "coded_height": 1606,
      "has_b_frames": 2,
      "sample_aspect_ratio": "1:1",
      "display_aspect_ratio": "1920:803",
      "pix_fmt": "yuv420p",
      "level": 51,
      "chroma_location": "left",
      "field_order": "progressive",
      "refs": 1,
      "is_avc": "true",
      "nal_length_size": "4",
      "r_frame_rate": "24000/1001",
      "avg_frame_rate": "24000/1001",
      "time_base": "1/1000",
      "start_pts": 0,
      "start_time": "0.000000",
      "bits_per_raw_sample": "8",
      "disposition": {
        "default": 0,
        "dub": 0,
        "original": 0,
        "comment": 0,
        "lyrics": 0,
        "karaoke": 0,
        "forced": 0,
        "hearing_impaired": 0,
        "visual_impaired": 0,
        "clean_effects": 0,
        "attached_pic": 0,
        "timed_thumbnails": 0
      },
      "tags": {
        "language": "eng",
        "title": "Looper (2012) - Release for ULTRAHDCLUB",
        "BPS": "61000888",
        "BPS-eng": "61000888",
        "DURATION": "01:58:54.669000000",
        "DURATION-eng": "01:58:54.669000000",
        "NUMBER_OF_FRAMES": "171061",
        "NUMBER_OF_FRAMES-eng": "171061",
        "NUMBER_OF_BYTES": "54402643430",
        "NUMBER_OF_BYTES-eng": "54402643430",
        "_STATISTICS_WRITING_APP": "mkvmerge v8.5.1 ('Where you lead I will follow') 64bit",
        "_STATISTICS_WRITING_APP-eng": "mkvmerge v8.5.1 ('Where you lead I will follow') 64bit",
        "_STATISTICS_WRITING_DATE_UTC": "2015-11-20 21:55:24",
        "_STATISTICS_WRITING_DATE_UTC-eng": "2015-11-20 21:55:24",
        "_STATISTICS_TAGS": "BPS DURATION NUMBER_OF_FRAMES NUMBER_OF_BYTES",
        "_STATISTICS_TAGS-eng": "BPS DURATION NUMBER_OF_FRAMES NUMBER_OF_BYTES"
      }
    },
    {
      "index": 1,
      "codec_name": "dts",
      "codec_long_name": "DCA (DTS Coherent Acoustics)",
      "profile": "DTS-HD MA",
      "codec_type": "audio",
      "codec_time_base": "1/48000",
      "codec_tag_string": "[0][0][0][0]",
      "codec_tag": "0x0000",
      "sample_fmt": "s32p",
      "sample_rate": "48000",
      "channels": 6,
      "channel_layout": "5.1(side)",
      "bits_per_sample": 0,
      "r_frame_rate": "0/0",
      "avg_frame_rate": "0/0",
      "time_base": "1/1000",
      "start_pts": 3,
      "start_time": "0.003000",
      "bits_per_raw_sample": "24",
      "disposition": {
        "default": 0,
        "dub": 0,
        "original": 0,
        "comment": 0,
        "lyrics": 0,
        "karaoke": 0,
        "forced": 0,
        "hearing_impaired": 0,
        "visual_impaired": 0,
        "clean_effects": 0,
        "attached_pic": 0,
        "timed_thumbnails": 0
      },
      "tags": {
        "language": "eng",
        "title": "DTS-HD 5.1 - Blu-ray",
        "BPS": "3650025",
        "BPS-eng": "3650025",
        "DURATION": "01:58:51.168000000",
        "DURATION-eng": "01:58:51.168000000",
        "NUMBER_OF_FRAMES": "668547",
        "NUMBER_OF_FRAMES-eng": "668547",
        "NUMBER_OF_BYTES": "3253618340",
        "NUMBER_OF_BYTES-eng": "3253618340",
        "_STATISTICS_WRITING_APP": "mkvmerge v8.5.1 ('Where you lead I will follow') 64bit",
        "_STATISTICS_WRITING_APP-eng": "mkvmerge v8.5.1 ('Where you lead I will follow') 64bit",
        "_STATISTICS_WRITING_DATE_UTC": "2015-11-20 21:55:24",
        "_STATISTICS_WRITING_DATE_UTC-eng": "2015-11-20 21:55:24",
        "_STATISTICS_TAGS": "BPS DURATION NUMBER_OF_FRAMES NUMBER_OF_BYTES",
        "_STATISTICS_TAGS-eng": "BPS DURATION NUMBER_OF_FRAMES NUMBER_OF_BYTES"
      }
    },
    {
      "index": 2,
      "codec_name": "ac3",
      "codec_long_name": "ATSC A/52A (AC-3)",
      "codec_type": "audio",
      "codec_time_base": "1/48000",
      "codec_tag_string": "[0][0][0][0]",
      "codec_tag": "0x0000",
      "sample_fmt": "fltp",
      "sample_rate": "48000",
      "channels": 6,
      "channel_layout": "5.1(side)",
      "bits_per_sample": 0,
      "dmix_mode": "-1",
      "ltrt_cmixlev": "-1.000000",
      "ltrt_surmixlev": "-1.000000",
      "loro_cmixlev": "-1.000000",
      "loro_surmixlev": "-1.000000",
      "r_frame_rate": "0/0",
      "avg_frame_rate": "0/0",
      "time_base": "1/1000",
      "start_pts": 0,
      "start_time": "0.000000",
      "bit_rate": "448000",
      "disposition": {
        "default": 1,
        "dub": 0,
        "original": 0,
        "comment": 0,
        "lyrics": 0,
        "karaoke": 0,
        "forced": 0,
        "hearing_impaired": 0,
        "visual_impaired": 0,
        "clean_effects": 0,
        "attached_pic": 0,
        "timed_thumbnails": 0
      },
      "tags": {
        "language": "hun"
      }
    },
    {
      "index": 3,
      "codec_name": "subrip",
      "codec_long_name": "SubRip subtitle",
      "codec_type": "subtitle",
      "codec_time_base": "0/1",
      "codec_tag_string": "[0][0][0][0]",
      "codec_tag": "0x0000",
      "r_frame_rate": "0/0",
      "avg_frame_rate": "0/0",
      "time_base": "1/1000",
      "start_pts": 0,
      "start_time": "0.000000",
      "duration_ts": 7134669,
      "duration": "7134.669000",
      "disposition": {
        "default": 1,
        "dub": 0,
        "original": 0,
        "comment": 0,
        "lyrics": 0,
        "karaoke": 0,
        "forced": 0,
        "hearing_impaired": 0,
        "visual_impaired": 0,
        "clean_effects": 0,
        "attached_pic": 0,
        "timed_thumbnails": 0
      },
      "tags": {
        "language": "hun",
        "title": "full"
      }
    },
    {
      "index": 4,
      "codec_name": "subrip",
      "codec_long_name": "SubRip subtitle",
      "codec_type": "subtitle",
      "codec_time_base": "0/1",
      "codec_tag_string": "[0][0][0][0]",
      "codec_tag": "0x0000",
      "r_frame_rate": "0/0",
      "avg_frame_rate": "0/0",
      "time_base": "1/1000",
      "start_pts": 0,
      "start_time": "0.000000",
      "duration_ts": 7134669,
      "duration": "7134.669000",
      "disposition": {
        "default": 0,
        "dub": 0,
        "original": 0,
        "comment": 0,
        "lyrics": 0,
        "karaoke": 0,
        "forced": 0,
        "hearing_impaired": 0,
        "visual_impaired": 0,
        "clean_effects": 0,
        "attached_pic": 0,
        "timed_thumbnails": 0
      },
      "tags": {
        "language": "hun",
        "title": "forced"
      }
    },
    {
      "index": 5,
      "codec_name": "subrip",
      "codec_long_name": "SubRip subtitle",
      "codec_type": "subtitle",
      "codec_time_base": "0/1",
      "codec_tag_string": "[0][0][0][0]",
      "codec_tag": "0x0000",
      "r_frame_rate": "0/0",
      "avg_frame_rate": "0/0",
      "time_base": "1/1000",
      "start_pts": 0,
      "start_time": "0.000000",
      "duration_ts": 7134669,
      "duration": "7134.669000",
      "disposition": {
        "default": 0,
        "dub": 0,
        "original": 0,
        "comment": 0,
        "lyrics": 0,
        "karaoke": 0,
        "forced": 0,
        "hearing_impaired": 0,
        "visual_impaired": 0,
        "clean_effects": 0,
        "attached_pic": 0,
        "timed_thumbnails": 0
      },
      "tags": {
        "language": "eng",
        "BPS": "39",
        "BPS-eng": "39",
        "DURATION": "01:47:12.384000000",
        "DURATION-eng": "01:47:12.384000000",
        "NUMBER_OF_FRAMES": "904",
        "NUMBER_OF_FRAMES-eng": "904",
        "NUMBER_OF_BYTES": "31360",
        "NUMBER_OF_BYTES-eng": "31360",
        "_STATISTICS_WRITING_APP": "mkvmerge v8.5.1 ('Where you lead I will follow') 64bit",
        "_STATISTICS_WRITING_APP-eng": "mkvmerge v8.5.1 ('Where you lead I will follow') 64bit",
        "_STATISTICS_WRITING_DATE_UTC": "2015-11-20 21:55:24",
        "_STATISTICS_WRITING_DATE_UTC-eng": "2015-11-20 21:55:24",
        "_STATISTICS_TAGS": "BPS DURATION NUMBER_OF_FRAMES NUMBER_OF_BYTES",
        "_STATISTICS_TAGS-eng": "BPS DURATION NUMBER_OF_FRAMES NUMBER_OF_BYTES"
      }
    }
  ],
  "format": {
    "filename": "Looper.2012.4K.UHD.Web-DL.2160p.DTS-HD.HuN-verpistike.mkv",
    "nb_streams": 6,
    "nb_programs": 0,
    "format_name": "matroska,webm",
    "format_long_name": "Matroska / WebM",
    "start_time": "0.000000",
    "duration": "7134.669000",
    "size": "58059091022",
    "bit_rate": "65100809",
    "probe_score": 100,
    "tags": {
      "title": "Looper (2012) - Release for ULTRAHDCLUB",
      "encoder": "libebml v0.7.7 + libmatroska v0.8.1",
      "creation_time": "2015-12-14T08:47:01.000000Z"
    }
  }
}
